<?xml version="1.0" encoding="UTF-8"?>
<svg id="_レイヤー_1" data-name="レイヤー_1" xmlns="http://www.w3.org/2000/svg" xmlns:figma="http://www.figma.com/figma/ns" version="1.1" viewBox="0 0 109 24">
  <!-- Generator: Adobe Illustrator 29.1.0, SVG Export Plug-In . SVG Version: 2.1.0 Build 142)  -->
  <defs>
    <style>
      .st0 {
        fill: #134d72;
        font-family: Impact, Impact;
        font-size: 29.6px;
        isolation: isolate;
      }

      .st1 {
        fill: #f40;
      }

      .st2 {
        display: none;
      }
    </style>
  </defs>
  <g class="st2" figma:type="canvas">
    <g figma:type="vector">
      <path id="b" class="st1" d="M22.7,23.2c.3.3.1.8-.4.8h-5.9c-.3,0-.6-.1-.7-.3L6.3,13.1v10.4c0,.3-.2.5-.5.5H.5c-.3,0-.5-.2-.5-.5V.5C0,.2.2,0,.5,0h5.3C6.1,0,6.3.2,6.3.5v9.8L15.4.3C15.6.1,15.9,0,16.2,0h5.8C22.4,0,22.7.5,22.4.8l-9.9,10.6,10.2,11.8h0Z"/>
      <path id="c" class="st1" d="M46,24c-.2,0-.4-.1-.5-.3l-2-4.7h-10.7l-2,4.7c-.1.2-.3.3-.5.3h-5.2c-.4,0-.6-.4-.5-.7L35.4.3C35.6.1,35.7,0,35.9,0h4.4C40.5,0,40.7.1,40.8.3l10.8,23c.2.3,0,.7-.5.7h-5.1ZM34.9,14.3h6.6l-3.3-7.7-3.3,7.7h0Z"/>
      <path id="d" class="st1" d="M55.5,24c-.3,0-.5-.2-.5-.5V.5C55,.2,55.2,0,55.5,0h5.3C61.1,0,61.3.2,61.3.5v18.4h9.8c.3,0,.5.2.5.5v4.1c0,.3-.2.5-.5.5h-15.6Z"/>
      <path id="e" class="st1" d="M75.3.5C75.3.2,75.5,0,75.8,0h9.3C87.8,0,90.1.5,92,1.4c1.9,1,3.4,2.3,4.4,4.2,1,1.8,1.5,3.9,1.5,6.4s-.5,4.7-1.5,6.5-2.5,3.2-4.4,4.1c-1.9,1-4.2,1.4-6.9,1.4h-9.3c-.3,0-.5-.2-.5-.5V.5ZM84.6,19c2.4,0,4.1-.6,5.3-1.7s1.7-2.9,1.7-5.2-.6-4.1-1.7-5.2c-1.1-1.3-2.9-1.9-5.3-1.9h-3.1v14h3.1Z"/>
      <path id="f" class="st1" d="M102.9,24c-.3,0-.5-.2-.5-.5V.5C102.4.2,102.6,0,102.9,0h5.3C108.5,0,108.7.2,108.7.5v23c0,.3-.2.5-.5.5h-5.3Z"/>
    </g>
  </g>
  <g id="_レイヤー_2" data-name="レイヤー_2">
    <text class="st0" transform="translate(.2 23.8) scale(1.2 1)"><tspan x="0" y="0">OWC’25</tspan></text>
  </g>
</svg>